
<svg width="34" height="49" viewBox="0 0 34 49" fill="none" xmlns="http://www.w3.org/2000/svg">
    <path d="M6.9839 15.3349L11.2489 8.30222C11.2489 8.30222 16.9357 5.95801 24.0441 7.13011C31.1525 8.30222 32.2074 10.0392 32.5742 11.8185C34.9887 23.5295 32.5742 28.2281 32.5742 28.2281C28.3092 37.6049 22.6224 37.6049 18.3574 37.6049C13.9327 37.6049 11.2489 34.29 11.249 37.6049C11.2491 41.3114 19.7791 42.2934 22.6225 42.2934C24.8971 42.2934 31.1525 39.9491 33.9959 38.777V44.6376C30.6787 46.5911 22.0538 50.0293 14.0924 48.1539C4.14058 45.8097 2.71889 37.6049 1.29721 35.2607L1.2963 35.2578C-0.123907 30.7736 -0.124302 30.7724 1.29208 24.9131C4.14044 19.0526 5.08832 18.0698 6.9839 15.3349Z" fill="white"/>
    <path d="M31.1525 3.61405C31.1525 1.26983 21.2008 -1.07438 18.3574 1.26983C16.0831 3.14492 15.5142 5.1766 15.514 5.95827C18.3574 4.78616 24.0441 5.95791 25.4658 5.95827C26.6032 5.95855 29.7309 7.52096 31.1525 8.30213V3.61405Z" fill="white"/>
    <ellipse cx="18.1106" cy="24.4978" rx="9.93091" ry="9.67943" fill="#0E78B9"/>
    <path d="M12.7722 23.6185C12.7646 26.4358 14.2129 31.4942 20.0667 29.1892" stroke="white" stroke-width="2.77577" stroke-linecap="round"/>
</svg>